<?xml version="1.0" standalone="no"?>
<!DOCTYPE svg PUBLIC "-//W3C//DTD SVG 20010904//EN"
 "http://www.w3.org/TR/2001/REC-SVG-20010904/DTD/svg10.dtd">
<svg version="1.0" xmlns="http://www.w3.org/2000/svg"
 width="16.000000pt" height="16.000000pt" viewBox="0 0 16.000000 16.000000"
 preserveAspectRatio="xMidYMid meet">

<g transform="translate(0.000000,16.000000) scale(0.100000,-0.100000)"
fill="#000000" stroke="none">
<path d="M20 132 c0 -15 -5 -33 -11 -39 -8 -8 -8 -13 0 -17 6 -4 11 -23 11
-42 0 -19 4 -34 8 -34 12 0 1 74 -12 82 -8 6 -8 8 0 8 7 0 14 16 16 35 2 19 0
35 -4 35 -4 0 -8 -13 -8 -28z"/>
<path d="M128 125 c2 -19 9 -35 16 -35 8 0 8 -2 0 -8 -13 -8 -24 -82 -12 -82
4 0 8 15 8 34 0 19 5 38 11 42 8 4 8 9 0 17 -6 6 -11 24 -11 39 0 15 -4 28 -8
28 -4 0 -6 -16 -4 -35z"/>
<path d="M40 80 l0 -60 40 0 c36 0 40 3 40 25 0 18 -5 25 -20 25 -11 0 -20 -4
-20 -10 0 -5 7 -7 15 -4 9 4 15 0 15 -10 0 -11 -9 -16 -30 -16 -29 0 -30 1
-30 50 0 49 1 50 31 50 20 0 28 -4 23 -12 -4 -7 -3 -8 4 -4 24 14 11 26 -28
26 l-40 0 0 -60z"/>
</g>
</svg>
